<mxfile host="app.diagrams.net" modified="2021-05-28T04:41:37.525Z" agent="5.0 (Windows NT 10.0; Win64; x64) AppleWebKit/537.36 (KHTML, like Gecko) Chrome/90.0.4430.212 Safari/537.36" etag="vz3sHOX0Nbl68yThbLgi" version="14.7.2" type="github">
  <diagram id="G8p9SbZOib4skIRy-0bS" name="Page-1">
    <mxGraphModel dx="868" dy="488" grid="1" gridSize="10" guides="1" tooltips="1" connect="1" arrows="1" fold="1" page="1" pageScale="1" pageWidth="827" pageHeight="1169" math="0" shadow="0">
      <root>
        <mxCell id="0" />
        <mxCell id="1" parent="0" />
        <mxCell id="_z9oQRc5HonLfiAAcYM1-9" value="Thẻ ATM" style="rounded=0;whiteSpace=wrap;html=1;" vertex="1" parent="1">
          <mxGeometry x="200" y="480" width="120" height="40" as="geometry" />
        </mxCell>
        <mxCell id="_z9oQRc5HonLfiAAcYM1-10" value="" style="group" vertex="1" connectable="0" parent="1">
          <mxGeometry x="70" y="60" width="396" height="135" as="geometry" />
        </mxCell>
        <mxCell id="rUtoLVDxUNt-dvp6y1Sc-1" value="Nhân viên" style="rounded=0;whiteSpace=wrap;html=1;" parent="_z9oQRc5HonLfiAAcYM1-10" vertex="1">
          <mxGeometry x="130" y="95" width="120" height="40" as="geometry" />
        </mxCell>
        <mxCell id="rUtoLVDxUNt-dvp6y1Sc-3" value="" style="endArrow=none;html=1;" parent="_z9oQRc5HonLfiAAcYM1-10" edge="1" target="rUtoLVDxUNt-dvp6y1Sc-8">
          <mxGeometry x="20" y="-5" width="50" height="50" as="geometry">
            <mxPoint x="130" y="95" as="sourcePoint" />
            <mxPoint x="90" y="55" as="targetPoint" />
          </mxGeometry>
        </mxCell>
        <mxCell id="rUtoLVDxUNt-dvp6y1Sc-4" value="" style="endArrow=none;html=1;" parent="_z9oQRc5HonLfiAAcYM1-10" edge="1" target="rUtoLVDxUNt-dvp6y1Sc-10">
          <mxGeometry x="20" y="-5" width="50" height="50" as="geometry">
            <mxPoint x="150" y="95" as="sourcePoint" />
            <mxPoint x="150" y="35" as="targetPoint" />
          </mxGeometry>
        </mxCell>
        <mxCell id="rUtoLVDxUNt-dvp6y1Sc-5" value="" style="endArrow=none;html=1;" parent="_z9oQRc5HonLfiAAcYM1-10" edge="1" target="_z9oQRc5HonLfiAAcYM1-3">
          <mxGeometry x="20" y="-5" width="50" height="50" as="geometry">
            <mxPoint x="189.5" y="95" as="sourcePoint" />
            <mxPoint x="190" y="35" as="targetPoint" />
          </mxGeometry>
        </mxCell>
        <mxCell id="rUtoLVDxUNt-dvp6y1Sc-6" value="" style="endArrow=none;html=1;" parent="_z9oQRc5HonLfiAAcYM1-10" edge="1" target="_z9oQRc5HonLfiAAcYM1-7">
          <mxGeometry x="20" y="-5" width="50" height="50" as="geometry">
            <mxPoint x="230" y="95" as="sourcePoint" />
            <mxPoint x="230" y="35" as="targetPoint" />
          </mxGeometry>
        </mxCell>
        <mxCell id="rUtoLVDxUNt-dvp6y1Sc-7" value="" style="endArrow=none;html=1;" parent="_z9oQRc5HonLfiAAcYM1-10" edge="1" target="_z9oQRc5HonLfiAAcYM1-8">
          <mxGeometry x="20" y="-5" width="50" height="50" as="geometry">
            <mxPoint x="250" y="95" as="sourcePoint" />
            <mxPoint x="290" y="55" as="targetPoint" />
          </mxGeometry>
        </mxCell>
        <mxCell id="rUtoLVDxUNt-dvp6y1Sc-8" value="Mã nhân viên" style="ellipse;whiteSpace=wrap;html=1;fontStyle=4" parent="_z9oQRc5HonLfiAAcYM1-10" vertex="1">
          <mxGeometry y="35" width="90" height="50" as="geometry" />
        </mxCell>
        <mxCell id="rUtoLVDxUNt-dvp6y1Sc-10" value="Tên nhân viên" style="ellipse;whiteSpace=wrap;html=1;" parent="_z9oQRc5HonLfiAAcYM1-10" vertex="1">
          <mxGeometry x="80" width="70" height="40" as="geometry" />
        </mxCell>
        <mxCell id="_z9oQRc5HonLfiAAcYM1-3" value="Địa chỉ" style="ellipse;whiteSpace=wrap;html=1;" vertex="1" parent="_z9oQRc5HonLfiAAcYM1-10">
          <mxGeometry x="160" y="5" width="60" height="35" as="geometry" />
        </mxCell>
        <mxCell id="_z9oQRc5HonLfiAAcYM1-7" value="Ngày sinh" style="ellipse;whiteSpace=wrap;html=1;" vertex="1" parent="_z9oQRc5HonLfiAAcYM1-10">
          <mxGeometry x="230" width="80" height="40" as="geometry" />
        </mxCell>
        <mxCell id="_z9oQRc5HonLfiAAcYM1-8" value="Số điện thoại" style="ellipse;whiteSpace=wrap;html=1;" vertex="1" parent="_z9oQRc5HonLfiAAcYM1-10">
          <mxGeometry x="312" y="15" width="84" height="40" as="geometry" />
        </mxCell>
        <mxCell id="_z9oQRc5HonLfiAAcYM1-13" value="" style="endArrow=none;html=1;strokeWidth=3;" edge="1" parent="1" source="_z9oQRc5HonLfiAAcYM1-14">
          <mxGeometry width="50" height="50" relative="1" as="geometry">
            <mxPoint x="260" y="560" as="sourcePoint" />
            <mxPoint x="260" y="520" as="targetPoint" />
          </mxGeometry>
        </mxCell>
        <mxCell id="_z9oQRc5HonLfiAAcYM1-14" value="O" style="ellipse;whiteSpace=wrap;html=1;aspect=fixed;" vertex="1" parent="1">
          <mxGeometry x="250" y="560" width="20" height="20" as="geometry" />
        </mxCell>
        <mxCell id="_z9oQRc5HonLfiAAcYM1-17" value="" style="endArrow=none;html=1;strokeWidth=1;exitX=1;exitY=0.5;exitDx=0;exitDy=0;" edge="1" parent="1" source="_z9oQRc5HonLfiAAcYM1-14">
          <mxGeometry x="270" y="585" width="50" height="50" as="geometry">
            <mxPoint x="290" y="550" as="sourcePoint" />
            <mxPoint x="320" y="600" as="targetPoint" />
          </mxGeometry>
        </mxCell>
        <mxCell id="_z9oQRc5HonLfiAAcYM1-23" value="" style="endArrow=none;html=1;strokeWidth=1;exitX=0;exitY=0.5;exitDx=0;exitDy=0;" edge="1" parent="1" source="_z9oQRc5HonLfiAAcYM1-14">
          <mxGeometry x="200" y="595.56" width="50" height="50" as="geometry">
            <mxPoint x="200" y="580.56" as="sourcePoint" />
            <mxPoint x="200" y="600" as="targetPoint" />
          </mxGeometry>
        </mxCell>
        <mxCell id="_z9oQRc5HonLfiAAcYM1-24" value="" style="shape=requiredInterface;html=1;verticalLabelPosition=bottom;rotation=-212;" vertex="1" parent="1">
          <mxGeometry x="230" y="570" width="6.25" height="15" as="geometry" />
        </mxCell>
        <mxCell id="_z9oQRc5HonLfiAAcYM1-18" value="" style="shape=requiredInterface;html=1;verticalLabelPosition=bottom;rotation=30;horizontal=0;verticalAlign=bottom;direction=east;flipH=0;flipV=1;" vertex="1" parent="1">
          <mxGeometry x="280" y="570" width="6.25" height="15" as="geometry" />
        </mxCell>
        <mxCell id="_z9oQRc5HonLfiAAcYM1-35" value="&lt;p style=&quot;line-height: 110%&quot;&gt;Thẻ ghi nợ&lt;/p&gt;" style="rounded=0;whiteSpace=wrap;html=1;verticalAlign=bottom;" vertex="1" parent="1">
          <mxGeometry x="120" y="600" width="80" height="40" as="geometry" />
        </mxCell>
        <mxCell id="_z9oQRc5HonLfiAAcYM1-36" value="&lt;p style=&quot;line-height: 130%&quot;&gt;Thẻ tín dụng&lt;/p&gt;" style="rounded=0;whiteSpace=wrap;html=1;verticalAlign=bottom;" vertex="1" parent="1">
          <mxGeometry x="320" y="600" width="80" height="40" as="geometry" />
        </mxCell>
        <mxCell id="_z9oQRc5HonLfiAAcYM1-37" value="" style="endArrow=none;html=1;strokeWidth=1;" edge="1" parent="1" target="_z9oQRc5HonLfiAAcYM1-38">
          <mxGeometry width="50" height="50" relative="1" as="geometry">
            <mxPoint x="200" y="480" as="sourcePoint" />
            <mxPoint x="130" y="430" as="targetPoint" />
          </mxGeometry>
        </mxCell>
        <mxCell id="_z9oQRc5HonLfiAAcYM1-38" value="" style="ellipse;whiteSpace=wrap;html=1;verticalAlign=bottom;" vertex="1" parent="1">
          <mxGeometry x="80" y="470" width="80" height="60" as="geometry" />
        </mxCell>
      </root>
    </mxGraphModel>
  </diagram>
</mxfile>
